HIERARCHY
ROOT Hips
{
	OFFSET 0 0 0
	CHANNELS 6 Xposition Yposition Zposition Zrotation Xrotation Yrotation 
	JOINT RightUpLeg
	{
		OFFSET -3.17 -2.64 -0.26
		CHANNELS 3 Zrotation Xrotation Yrotation 
		JOINT RightLeg
		{
			OFFSET -0.36 -13.7 -0.45
			CHANNELS 3 Zrotation Xrotation Yrotation 
			End Site
			{
				OFFSET 0.13 -14.01 -0.08
			}
		}
	}
	JOINT LeftUpLeg
	{
		OFFSET 3.17 -2.64 -0.26
		CHANNELS 3 Zrotation Xrotation Yrotation 
		JOINT LeftLeg
		{
			OFFSET 0.36 -13.7 -0.45
			CHANNELS 3 Zrotation Xrotation Yrotation 
			End Site
			{
				OFFSET -0.13 -14.01 -0.08
			}
		}
	}
	JOINT Spine
	{
		OFFSET 0 2.88 0
		CHANNELS 3 Zrotation Xrotation Yrotation 
		JOINT Spine1
		{
			OFFSET 0 3.38 0
			CHANNELS 3 Zrotation Xrotation Yrotation 
			JOINT Spine2
			{
				OFFSET 0 3.61 0
				CHANNELS 3 Zrotation Xrotation Yrotation 
				JOINT Spine3
				{
					OFFSET 0 3.52 0.37
					CHANNELS 3 Zrotation Xrotation Yrotation 
					JOINT Neck
					{
						OFFSET 0 3.62 -0.37
						CHANNELS 3 Zrotation Xrotation Yrotation 
						End Site
						{
							OFFSET 0 3 0
						}
					}
					JOINT RightShoulder
					{
						OFFSET -1.47 1.22 -0.37
						CHANNELS 3 Zrotation Xrotation Yrotation 
						JOINT RightArm
						{
							OFFSET -4.69 0 0
							CHANNELS 3 Zrotation Xrotation Yrotation 
							JOINT RightForeArm
							{
								OFFSET -7.76 0 0
								CHANNELS 3 Zrotation Xrotation Yrotation 
								JOINT RightHand
								{
									OFFSET -8.52 0 0
									CHANNELS 3 Zrotation Xrotation Yrotation 
									JOINT RightHandThumb1
									{
										OFFSET -1.01 0.08 1.27
										CHANNELS 3 Zrotation Xrotation Yrotation 
										JOINT RightHandThumb2
										{
											OFFSET -1.5 0 -0.01
											CHANNELS 3 Zrotation Xrotation Yrotation 
											End Site
											{
												OFFSET -1.04 0 -0.01
											}
										}
									}
									JOINT RightInHandIndex
									{
										OFFSET -1.31 0.21 0.81
										CHANNELS 3 Zrotation Xrotation Yrotation 
										JOINT RightHandIndex1
										{
											OFFSET -2.13 -0.04 0.41
											CHANNELS 3 Zrotation Xrotation Yrotation 
											JOINT RightHandIndex2
											{
												OFFSET -1.47 -0.07 0
												CHANNELS 3 Zrotation Xrotation Yrotation 
												End Site
												{
													OFFSET -0.83 -0.05 0
												}
											}
										}
									}
									JOINT RightInHandMiddle
									{
										OFFSET -1.38 0.21 0.31
										CHANNELS 3 Zrotation Xrotation Yrotation 
										JOINT RightHandMiddle1
										{
											OFFSET -2.11 -0.03 0.13
											CHANNELS 3 Zrotation Xrotation Yrotation 
											JOINT RightHandMiddle2
											{
												OFFSET -1.6 -0.11 0
												CHANNELS 3 Zrotation Xrotation Yrotation 
												End Site
												{
													OFFSET -1 -0.08 0
												}
											}
										}
									}
									JOINT RightInHandRing
									{
										OFFSET -1.37 0.22 -0.05
										CHANNELS 3 Zrotation Xrotation Yrotation 
										JOINT RightHandRing1
										{
											OFFSET -1.89 -0.01 -0.2
											CHANNELS 3 Zrotation Xrotation Yrotation 
											JOINT RightHandRing2
											{
												OFFSET -1.4 -0.13 0
												CHANNELS 3 Zrotation Xrotation Yrotation 
												End Site
												{
													OFFSET -0.97 -0.08 0
												}
											}
										}
									}
									JOINT RightInHandPinky
									{
										OFFSET -1.29 0.19 -0.49
										CHANNELS 3 Zrotation Xrotation Yrotation 
										JOINT RightHandPinky1
										{
											OFFSET -1.69 -0.01 -0.44
											CHANNELS 3 Zrotation Xrotation Yrotation 
											JOINT RightHandPinky2
											{
												OFFSET -1.12 -0.06 -0.01
												CHANNELS 3 Zrotation Xrotation Yrotation 
												End Site
												{
													OFFSET -0.71 -0.05 0
												}
											}
										}
									}
								}
							}
						}
					}
					JOINT LeftShoulder
					{
						OFFSET 1.47 1.22 -0.37
						CHANNELS 3 Zrotation Xrotation Yrotation 
						JOINT LeftArm
						{
							OFFSET 4.69 0 0
							CHANNELS 3 Zrotation Xrotation Yrotation 
							JOINT LeftForeArm
							{
								OFFSET 7.76 0 0
								CHANNELS 3 Zrotation Xrotation Yrotation 
								JOINT LeftHand
								{
									OFFSET 8.52 0 0
									CHANNELS 3 Zrotation Xrotation Yrotation 
									JOINT LeftHandThumb1
									{
										OFFSET 1.01 0.08 1.27
										CHANNELS 3 Zrotation Xrotation Yrotation 
										JOINT LeftHandThumb2
										{
											OFFSET 1.5 0 0
											CHANNELS 3 Zrotation Xrotation Yrotation 
											End Site
											{
												OFFSET 1.04 0 0
											}
										}
									}
									JOINT LeftInHandIndex
									{
										OFFSET 1.31 0.21 0.81
										CHANNELS 3 Zrotation Xrotation Yrotation 
										JOINT LeftHandIndex1
										{
											OFFSET 2.13 -0.04 0.41
											CHANNELS 3 Zrotation Xrotation Yrotation 
											JOINT LeftHandIndex2
											{
												OFFSET 1.47 -0.07 0
												CHANNELS 3 Zrotation Xrotation Yrotation 
												End Site
												{
													OFFSET 0.83 -0.05 0
												}
											}
										}
									}
									JOINT LeftInHandMiddle
									{
										OFFSET 1.38 0.21 0.31
										CHANNELS 3 Zrotation Xrotation Yrotation 
										JOINT LeftHandMiddle1
										{
											OFFSET 2.11 -0.03 0.13
											CHANNELS 3 Zrotation Xrotation Yrotation 
											JOINT LeftHandMiddle2
											{
												OFFSET 1.6 -0.11 0
												CHANNELS 3 Zrotation Xrotation Yrotation 
												End Site
												{
													OFFSET 1 -0.08 0
												}
											}
										}
									}
									JOINT LeftInHandRing
									{
										OFFSET 1.37 0.22 -0.05
										CHANNELS 3 Zrotation Xrotation Yrotation 
										JOINT LeftHandRing1
										{
											OFFSET 1.89 -0.01 -0.2
											CHANNELS 3 Zrotation Xrotation Yrotation 
											JOINT LeftHandRing2
											{
												OFFSET 1.4 -0.11 0
												CHANNELS 3 Zrotation Xrotation Yrotation 
												End Site
												{
													OFFSET 0.97 -0.07 0
												}
											}
										}
									}
									JOINT LeftInHandPinky
									{
										OFFSET 1.29 0.19 -0.49
										CHANNELS 3 Zrotation Xrotation Yrotation 
										JOINT LeftHandPinky1
										{
											OFFSET 1.69 -0.01 -0.44
											CHANNELS 3 Zrotation Xrotation Yrotation 
											JOINT LeftHandPinky2
											{
												OFFSET 1.12 -0.06 0
												CHANNELS 3 Zrotation Xrotation Yrotation 
												End Site
												{
													OFFSET 0.71 -0.05 0
												}
											}
										}
									}
								}
							}
						}
					}
				}
			}
		}
	}
}
MOTION
Frames: 10
Frame Time: 0.0333333
-96.4027 30.0924 7.1987 357.5696 -339.5115 359.8653 2.4919 -42.6712 349.1443 0 -332.7723 0 12.2507 -42.5935 4.1534 0 -329.3872 0 2.1648 -355.3182 357.7803 0.5236 -358.808 359.4828 0.8769 -358.0099 359.1516 0.0385 -1.1755 0.1146 0.0386 -1.1845 0.1137 8.1278 -3.1782 12.4699 80.8992 -347.1622 13.0635 276.1686 -283.9312 92.3878 318.0431 -38.7686 337.1493 69.9734 -328.0439 10.9191 28.6031 -5.05 350.8299 0 0 0 13.1508 -356.5114 14.5978 10.666 0 0 0 0 0 6.9483 0 0 6.9483 0 0 0 0 0 22.3477 -5.8173 346.1501 23.0548 0 0 0 0 0 10.8336 -5.0089 335.4753 11.9229 0 0 347.2362 -11.855 355.8542 291.7985 -318.6708 352.2035 28.1323 -346.0216 333.5715 12.5976 -22.6733 12.9298 337.1483 -327.5676 308.16 340.4747 -22.1848 46.7976 0 0 0 277.1441 -345.1113 358.1555 34.9785 0 0 0 0 0 328.9279 0 0 328.9279 0 0 0 0 0 291.9969 -13.9523 5.5631 291.3157 0 0 0 0 0 330.4511 -12.951 21.5708 327.9738 0 0 
-96.4027 30.0924 7.1987 357.5696 -339.5115 359.8653 2.4919 -42.6712 349.1443 0 -332.7723 0 12.2507 -42.5935 4.1534 0 -329.3872 0 2.1648 -355.3182 357.7803 0.5236 -358.808 359.4828 0.8769 -358.0099 359.1516 0.0385 -1.1755 0.1146 0.0386 -1.1845 0.1137 8.1278 -3.1782 12.4699 80.8992 -347.1622 13.0635 276.1686 -283.9312 92.3878 318.0431 -38.7686 337.1493 69.9734 -328.0439 10.9191 28.6031 -5.05 350.8299 0 0 0 13.1508 -356.5114 14.5978 10.666 0 0 0 0 0 6.9483 0 0 6.9483 0 0 0 0 0 22.3477 -5.8173 346.1501 23.0548 0 0 0 0 0 10.8336 -5.0089 335.4753 11.9229 0 0 347.2362 -11.855 355.8542 291.7985 -318.6708 352.2035 28.1323 -346.0216 333.5715 12.5976 -22.6733 12.9298 337.1483 -327.5676 308.16 340.4747 -22.1848 46.7976 0 0 0 277.1441 -345.1113 358.1555 34.9785 0 0 0 0 0 328.9279 0 0 328.9279 0 0 0 0 0 291.9969 -13.9523 5.5631 291.3157 0 0 0 0 0 330.4511 -12.951 21.5708 327.9738 0 0 
-96.5031 30.2173 6.7671 358.351 -341.7209 359.6842 1.4277 -39.3916 349.4196 0 -332.8306 0 10.6309 -38.7007 3.5224 0 -330.7799 0 1.9336 -355.7736 357.4846 0.4656 -358.9217 359.4007 0.7809 -358.1979 359.0118 0.0086 -0.9893 0.1179 0.0086 -0.9944 0.1176 7.6285 -0.4314 12.3284 76.862 -350.9679 16.084 275.5431 -283.4667 100.6356 323.0195 -39.1927 338.837 70.4256 -328.4669 10.5347 28.8164 -5.5886 349.9613 0 0 0 13.2177 -356.494 14.5937 18.2549 0 0 0 0 0 6.9395 0 0 6.9395 0 0 0 0 0 22.9219 -5.9578 346.209 23.643 0 0 0 0 0 10.8406 -5.0121 335.4759 11.9306 0 0 348.2249 -11.5006 356.7279 291.3861 -321.2406 351.8421 25.3466 -346.3978 332.464 13.3287 -21.8384 12.6273 335.3887 -327.7257 310.625 341.4771 -24.0869 50.6164 0 0 0 275.1461 -345.0577 358.6698 35.3967 0 0 0 0 0 327.7745 0 0 327.7745 0 0 0 0 0 290.8207 -14.0606 5.2784 290.1693 0 0 0 0 0 329.3766 -13.3621 21.3262 326.8496 0 0 
-96.5031 30.2173 6.7671 358.351 -341.7209 359.6842 1.4277 -39.3916 349.4196 0 -332.8306 0 10.6309 -38.7007 3.5224 0 -330.7799 0 1.9336 -355.7736 357.4846 0.4656 -358.9217 359.4007 0.7809 -358.1979 359.0118 0.0086 -0.9893 0.1179 0.0086 -0.9944 0.1176 7.6285 -0.4314 12.3284 76.862 -350.9679 16.084 275.5431 -283.4667 100.6356 323.0195 -39.1927 338.837 70.4256 -328.4669 10.5347 28.8164 -5.5886 349.9613 0 0 0 13.2177 -356.494 14.5937 18.2549 0 0 0 0 0 6.9395 0 0 6.9395 0 0 0 0 0 22.9219 -5.9578 346.209 23.643 0 0 0 0 0 10.8406 -5.0121 335.4759 11.9306 0 0 348.2249 -11.5006 356.7279 291.3861 -321.2406 351.8421 25.3466 -346.3978 332.464 13.3287 -21.8384 12.6273 335.3887 -327.7257 310.625 341.4771 -24.0869 50.6164 0 0 0 275.1461 -345.0577 358.6698 35.3967 0 0 0 0 0 327.7745 0 0 327.7745 0 0 0 0 0 290.8207 -14.0606 5.2784 290.1693 0 0 0 0 0 329.3766 -13.3621 21.3262 326.8496 0 0 
-96.5601 30.3105 6.3772 358.351 -341.7209 359.6842 1.3965 -38.1328 349.8088 0 -333.4809 0 10.2541 -37.4232 3.0638 0 -331.566 0 2.1719 -357.522 357.3776 0.5323 -359.3556 359.3645 0.8902 -358.9169 358.9491 359.9544 -0.7313 0.1137 359.9543 -0.733 0.1141 7.0278 -0.4336 11.7998 75.8157 -352.0468 15.24 273.8291 -283.3509 107.2433 325.999 -38.643 339.4521 70.6943 -328.3647 10.4114 29.0689 -5.5716 350.0927 0 0 0 13.2424 -356.4876 14.5922 18.5669 0 0 0 0 0 8.2638 0 0 8.2638 0 0 0 0 0 23.1581 -6.0154 346.2336 23.8849 0 0 0 0 0 10.7844 -4.9866 335.471 11.8691 0 0 349.0016 -11.1812 357.4624 292.5434 -326.1748 350.4575 22.7913 -344.5069 330.4417 13.4941 -20.4116 13.3164 334.0938 -326.2794 311.1833 340.0362 -25.3445 49.6817 0 0 0 273.8723 -345.0327 358.9985 35.6817 0 0 0 0 0 326.9859 0 0 326.9859 0 0 0 0 0 290.6061 -14.0797 5.2263 289.9603 0 0 0 0 0 328.585 -13.6611 21.1413 326.0239 0 0 
-96.5601 30.3105 6.3772 358.351 -341.7209 359.6842 1.3965 -38.1328 349.8088 0 -333.4809 0 10.2541 -37.4232 3.0638 0 -331.566 0 2.1719 -357.522 357.3776 0.5323 -359.3556 359.3645 0.8902 -358.9169 358.9491 359.9544 -0.7313 0.1137 359.9543 -0.733 0.1141 7.0278 -0.4336 11.7998 75.8157 -352.0468 15.24 273.8291 -283.3509 107.2433 325.999 -38.643 339.4521 70.6943 -328.3647 10.4114 29.0689 -5.5716 350.0927 0 0 0 13.2424 -356.4876 14.5922 18.5669 0 0 0 0 0 8.2638 0 0 8.2638 0 0 0 0 0 23.1581 -6.0154 346.2336 23.8849 0 0 0 0 0 10.7844 -4.9866 335.471 11.8691 0 0 349.0016 -11.1812 357.4624 292.5434 -326.1748 350.4575 22.7913 -344.5069 330.4417 13.4941 -20.4116 13.3164 334.0938 -326.2794 311.1833 340.0362 -25.3445 49.6817 0 0 0 273.8723 -345.0327 358.9985 35.6817 0 0 0 0 0 326.9859 0 0 326.9859 0 0 0 0 0 290.6061 -14.0797 5.2263 289.9603 0 0 0 0 0 328.585 -13.6611 21.1413 326.0239 0 0 
-96.5995 30.3803 6.0217 359.0801 -343.9281 359.6957 0.398 -35.2635 349.8394 0 -333.0359 0 8.7488 -33.8763 1.7212 0 -332.6781 0 1.9672 -357.7937 357.1608 0.4815 -359.424 359.3062 0.8056 -359.0308 358.8506 359.9161 -0.5483 0.1104 359.9161 -0.5488 0.1111 6.7131 -2.7614 11.0326 75.2514 -352.1309 12.1003 270.8646 -283.4899 114.4967 327.2635 -37.6001 338.4786 70.5917 -327.8871 10.608 29.1528 -5.0796 350.9807 0 0 0 13.1333 -356.516 14.5988 18.5134 0 0 0 0 0 8.0636 0 0 8.0636 0 0 0 0 0 23.0244 -5.9828 346.2196 23.748 0 0 0 0 0 10.6924 -4.9447 335.463 11.7683 0 0 349.5695 -10.8669 358.1073 291.7925 -327.7979 351.0522 23.6478 -345.3874 329.0591 12.929 -18.613 14.96 335.6079 -324.3741 307.8998 336.7747 -23.4358 42.825 0 0 0 274.1927 -345.0383 358.9158 35.6363 0 0 0 0 0 326.8503 0 0 326.8503 0 0 0 0 0 291.5686 -13.9924 5.4597 290.8981 0 0 0 0 0 328.5086 -13.6898 21.1232 325.9443 0 0 
-96.5995 30.3803 6.0217 359.0801 -343.9281 359.6957 0.398 -35.2635 349.8394 0 -333.0359 0 8.7488 -33.8763 1.7212 0 -332.6781 0 1.9672 -357.7937 357.1608 0.4815 -359.424 359.3062 0.8056 -359.0308 358.8506 359.9161 -0.5483 0.1104 359.9161 -0.5488 0.1111 6.7131 -2.7614 11.0326 75.2514 -352.1309 12.1003 270.8646 -283.4899 114.4967 327.2635 -37.6001 338.4786 70.5917 -327.8871 10.608 29.1528 -5.0796 350.9807 0 0 0 13.1333 -356.516 14.5988 18.5134 0 0 0 0 0 8.0636 0 0 8.0636 0 0 0 0 0 23.0244 -5.9828 346.2196 23.748 0 0 0 0 0 10.6924 -4.9447 335.463 11.7683 0 0 349.5695 -10.8669 358.1073 291.7925 -327.7979 351.0522 23.6478 -345.3874 329.0591 12.929 -18.613 14.96 335.6079 -324.3741 307.8998 336.7747 -23.4358 42.825 0 0 0 274.1927 -345.0383 358.9158 35.6363 0 0 0 0 0 326.8503 0 0 326.8503 0 0 0 0 0 291.5686 -13.9924 5.4597 290.8981 0 0 0 0 0 328.5086 -13.6898 21.1232 325.9443 0 0 
-96.5995 30.3803 6.0217 359.0801 -343.9281 359.6957 0.398 -35.2635 349.8394 0 -333.0359 0 8.7488 -33.8763 1.7212 0 -332.6781 0 1.9672 -357.7937 357.1608 0.4815 -359.424 359.3062 0.8056 -359.0308 358.8506 359.9161 -0.5483 0.1104 359.9161 -0.5488 0.1111 6.7131 -2.7614 11.0326 75.2514 -352.1309 12.1003 270.8646 -283.4899 114.4967 327.2635 -37.6001 338.4786 70.5917 -327.8871 10.608 29.1528 -5.0796 350.9807 0 0 0 13.1333 -356.516 14.5988 18.5134 0 0 0 0 0 8.0636 0 0 8.0636 0 0 0 0 0 23.0244 -5.9828 346.2196 23.748 0 0 0 0 0 10.6924 -4.9447 335.463 11.7683 0 0 349.5695 -10.8669 358.1073 291.7925 -327.7979 351.0522 23.6478 -345.3874 329.0591 12.929 -18.613 14.96 335.6079 -324.3741 307.8998 336.7747 -23.4358 42.825 0 0 0 274.1927 -345.0383 358.9158 35.6363 0 0 0 0 0 326.8503 0 0 326.8503 0 0 0 0 0 291.5686 -13.9924 5.4597 290.8981 0 0 0 0 0 328.5086 -13.6898 21.1232 325.9443 0 0 
-96.6214 30.424 5.6631 0.2142 -348.0346 0.2903 358.6357 -30.8796 349.2765 0 -331.5886 0 6.626 -28.4551 359.903 0 -333.9718 0 1.5152 -356.7638 356.596 0.3606 -359.1685 359.1658 0.607 -358.6068 358.6166 359.879 -0.3892 0.1066 359.8789 -0.3891 0.1073 6.4031 -2.4444 10.4397 73.9917 -353.1683 11.3708 269.9885 -284.403 119.0972 327.2841 -36.5125 336.5593 70.3054 -327.2148 10.9693 29.148 -4.3467 352.2607 0 0 0 13.0249 -356.5442 14.6054 18.4902 0 0 0 0 0 7.9718 0 0 7.9718 0 0 0 0 0 22.8699 -5.9451 346.2036 23.5898 0 0 0 0 0 10.6321 -4.9173 335.4578 11.7022 0 0 350.0857 -10.542 358.7652 291.3915 -329.3015 351.1936 24.5974 -345.6321 328.5373 12.3788 -17.0027 17.1304 336.8518 -323.322 305.5932 334.9541 -21.8522 38.539 0 0 0 275.6328 -345.0692 358.5443 35.3956 0 0 0 0 0 327.233 0 0 327.233 0 0 0 0 0 293.2613 -13.8294 5.8667 292.5492 0 0 0 0 0 328.946 -13.5251 21.2261 326.4002 0 0 
